# xmcd
#
# Track frame offsets:
#	150
#	26631
#	54129
#	85944
#	105838
#	124094
#	145575
#	161349
#	187742
#	213656
#	240133
#	267520
#	292693
#	326691
#	341929
#
# Disc length: 4789 seconds
#
# Revision: 1
# Processed by: cddbd v1.5PL3 Copyright (c) Steve Scherf et al.
# Submitted via: CDmax 2.0
#
DISCID=c312b30f
DTITLE=Jorma Kaukonen - Live in Charlotesville, VA - 12.05.1985 - d2
DYEAR=1985
DGENRE=Blues
TTITLE0=Keep You Lamps Trimmed and Burning
TTITLE1=Walkin' Blues
TTITLE2=Whinin' Boy Blues
TTITLE3=Follow The Drinking Gourd
TTITLE4=Candy Man
TTITLE5=Uncle Sam Blues
TTITLE6=I'll Be All Right Someday
TTITLE7=99 Year Blues
TTITLE8=Another Man Done Gone
TTITLE9=Rock Me Baby
TTITLE10=Trial By Fire
TTITLE11=That'll Never Happen No More
TTITLE12=Mann's Fate
TTITLE13=Too Hot To Handle
TTITLE14=Water Song
EXTD=Jorma Kaukonen\nLive at the Mineshaft\nCharlottesville, VA\n12.05.1985\n
EXTD=\nDisc 1:\nSet 1:\n01. I Know You Rider\n02. Hesitation Blues\n03. Deat
EXTD=h Don't Have No Mercy\n04. Embryonic Journey\n05. Good Shepherd\n06. Bro
EXTD=ken Highway\n07. Genesis\n08. I Am The Light Of This World\n09. Ice Age\
EXTD=n10. Police Dog Blues\n11. Killin Tim in the Crystal City\n\nDisc 2:\nSe
EXTD=t 2:\n01. Keep Your Lamps Trimmed And Burning\n02. Walkin' Blues\n03. Wh
EXTD=inin' Boy Blues\n04. Follow The Drinking Gourd\n05. Candy man\n06. Uncl
EXTD=e Sam Blues\n07. I'll Be All Right Someday\n08. 99 Year Blues\n09. Anoth
EXTD=er Man Done Gone\n10. Rock Me Baby\n11. Trial By Fire\n12. That'll Neve
EXTD=r Happen No More\n13. Mann's Fate\n14. Too Hot To Handle\n15. Water Song
EXTT0=
EXTT1=
EXTT2=
EXTT3=
EXTT4=
EXTT5=
EXTT6=
EXTT7=
EXTT8=
EXTT9=
EXTT10=
EXTT11=
EXTT12=
EXTT13=
EXTT14=
PLAYORDER=
